<svg width="19" height="19" viewBox="0 0 19 19" fill="none" xmlns="http://www.w3.org/2000/svg">
<path d="M1.58333 19C0.708881 19 0 18.2911 0 17.4167C0 16.5422 0.708882 15.8333 1.58333 15.8333H17.4167C18.2911 15.8333 19 16.5422 19 17.4167C19 18.2911 18.2911 19 17.4167 19H1.58333ZM1.58333 11.0833C0.708881 11.0833 0 10.3745 0 9.5C0 8.62555 0.708882 7.91667 1.58333 7.91667H17.4167C18.2911 7.91667 19 8.62555 19 9.5C19 10.3745 18.2911 11.0833 17.4167 11.0833H1.58333ZM1.58333 3.16667C0.708881 3.16667 0 2.45778 0 1.58333C0 0.708883 0.708882 0 1.58333 0H17.4167C18.2911 0 19 0.708883 19 1.58333C19 2.45778 18.2911 3.16667 17.4167 3.16667H1.58333Z" fill="black"/>
</svg>
